<mxfile host="app.diagrams.net" modified="2023-02-27T10:00:53.191Z" agent="5.0 (X11; Linux x86_64) AppleWebKit/537.36 (KHTML, like Gecko) Chrome/110.0.0.0 Safari/537.36" etag="1XMOHlK1p7lFLFmqgAf1" version="20.8.23" type="github">
  <diagram id="C5RBs43oDa-KdzZeNtuy" name="Page-1">
    <mxGraphModel dx="1018" dy="579" grid="1" gridSize="10" guides="1" tooltips="1" connect="1" arrows="1" fold="1" page="1" pageScale="1" pageWidth="827" pageHeight="1169" math="0" shadow="0">
      <root>
        <mxCell id="WIyWlLk6GJQsqaUBKTNV-0" />
        <mxCell id="WIyWlLk6GJQsqaUBKTNV-1" parent="WIyWlLk6GJQsqaUBKTNV-0" />
        <mxCell id="WIyWlLk6GJQsqaUBKTNV-2" value="" style="rounded=0;html=1;jettySize=auto;orthogonalLoop=1;fontSize=11;endArrow=block;endFill=0;endSize=8;strokeWidth=1;shadow=0;labelBackgroundColor=none;edgeStyle=orthogonalEdgeStyle;" parent="WIyWlLk6GJQsqaUBKTNV-1" edge="1">
          <mxGeometry relative="1" as="geometry">
            <mxPoint x="220" y="110" as="sourcePoint" />
            <mxPoint x="220" y="170" as="targetPoint" />
          </mxGeometry>
        </mxCell>
        <mxCell id="ZAsc5fxTnf5-SnVRRF1R-0" value="Start" style="ellipse;whiteSpace=wrap;html=1;fillColor=#f8cecc;strokeColor=#b85450;" vertex="1" parent="WIyWlLk6GJQsqaUBKTNV-1">
          <mxGeometry x="160" y="70" width="120" height="40" as="geometry" />
        </mxCell>
        <mxCell id="ZAsc5fxTnf5-SnVRRF1R-2" value="Input int n [ ]" style="shape=parallelogram;perimeter=parallelogramPerimeter;whiteSpace=wrap;html=1;fixedSize=1;size=30;fillColor=#dae8fc;strokeColor=#6c8ebf;rounded=1;" vertex="1" parent="WIyWlLk6GJQsqaUBKTNV-1">
          <mxGeometry x="160" y="170" width="120" height="40" as="geometry" />
        </mxCell>
        <mxCell id="ZAsc5fxTnf5-SnVRRF1R-9" value="" style="edgeStyle=orthogonalEdgeStyle;rounded=0;orthogonalLoop=1;jettySize=auto;html=1;" edge="1" parent="WIyWlLk6GJQsqaUBKTNV-1" source="ZAsc5fxTnf5-SnVRRF1R-3" target="ZAsc5fxTnf5-SnVRRF1R-7">
          <mxGeometry relative="1" as="geometry" />
        </mxCell>
        <mxCell id="ZAsc5fxTnf5-SnVRRF1R-3" value="set sum =0&amp;nbsp;&lt;br&gt;set i = 0" style="rounded=1;whiteSpace=wrap;html=1;fillColor=#e1d5e7;strokeColor=#9673a6;" vertex="1" parent="WIyWlLk6GJQsqaUBKTNV-1">
          <mxGeometry x="160" y="300" width="120" height="40" as="geometry" />
        </mxCell>
        <mxCell id="ZAsc5fxTnf5-SnVRRF1R-6" value="" style="edgeStyle=orthogonalEdgeStyle;rounded=0;orthogonalLoop=1;jettySize=auto;html=1;exitX=0.5;exitY=1;exitDx=0;exitDy=0;" edge="1" parent="WIyWlLk6GJQsqaUBKTNV-1" source="ZAsc5fxTnf5-SnVRRF1R-2">
          <mxGeometry relative="1" as="geometry">
            <mxPoint x="220" y="240" as="sourcePoint" />
            <mxPoint x="220" y="300" as="targetPoint" />
          </mxGeometry>
        </mxCell>
        <mxCell id="ZAsc5fxTnf5-SnVRRF1R-19" value="" style="edgeStyle=orthogonalEdgeStyle;rounded=0;orthogonalLoop=1;jettySize=auto;html=1;" edge="1" parent="WIyWlLk6GJQsqaUBKTNV-1" source="ZAsc5fxTnf5-SnVRRF1R-7">
          <mxGeometry relative="1" as="geometry">
            <mxPoint x="340" y="452.5652173913044" as="targetPoint" />
          </mxGeometry>
        </mxCell>
        <mxCell id="ZAsc5fxTnf5-SnVRRF1R-32" style="edgeStyle=orthogonalEdgeStyle;rounded=0;orthogonalLoop=1;jettySize=auto;html=1;" edge="1" parent="WIyWlLk6GJQsqaUBKTNV-1" source="ZAsc5fxTnf5-SnVRRF1R-7" target="ZAsc5fxTnf5-SnVRRF1R-25">
          <mxGeometry relative="1" as="geometry">
            <mxPoint x="219.9999999999999" y="529.9999999999999" as="targetPoint" />
          </mxGeometry>
        </mxCell>
        <mxCell id="ZAsc5fxTnf5-SnVRRF1R-7" value="for (i &amp;lt; length(n) )" style="rhombus;whiteSpace=wrap;html=1;fillColor=#fff2cc;strokeColor=#d6b656;" vertex="1" parent="WIyWlLk6GJQsqaUBKTNV-1">
          <mxGeometry x="158.5" y="395" width="123" height="115" as="geometry" />
        </mxCell>
        <mxCell id="ZAsc5fxTnf5-SnVRRF1R-16" value="" style="edgeStyle=orthogonalEdgeStyle;rounded=0;orthogonalLoop=1;jettySize=auto;html=1;" edge="1" parent="WIyWlLk6GJQsqaUBKTNV-1" source="ZAsc5fxTnf5-SnVRRF1R-10" target="ZAsc5fxTnf5-SnVRRF1R-14">
          <mxGeometry relative="1" as="geometry" />
        </mxCell>
        <mxCell id="ZAsc5fxTnf5-SnVRRF1R-10" value="sum = sum+(n[i]*n[i])" style="rounded=1;whiteSpace=wrap;html=1;fillColor=#e1d5e7;strokeColor=#9673a6;" vertex="1" parent="WIyWlLk6GJQsqaUBKTNV-1">
          <mxGeometry x="158.5" y="600" width="120" height="30" as="geometry" />
        </mxCell>
        <mxCell id="ZAsc5fxTnf5-SnVRRF1R-17" style="edgeStyle=orthogonalEdgeStyle;rounded=0;orthogonalLoop=1;jettySize=auto;html=1;exitX=0;exitY=0.5;exitDx=0;exitDy=0;entryX=0;entryY=0.5;entryDx=0;entryDy=0;shadow=0;" edge="1" parent="WIyWlLk6GJQsqaUBKTNV-1" source="ZAsc5fxTnf5-SnVRRF1R-14" target="ZAsc5fxTnf5-SnVRRF1R-7">
          <mxGeometry relative="1" as="geometry">
            <Array as="points">
              <mxPoint x="90" y="692" />
              <mxPoint x="90" y="452" />
            </Array>
          </mxGeometry>
        </mxCell>
        <mxCell id="ZAsc5fxTnf5-SnVRRF1R-14" value="i++" style="rounded=1;whiteSpace=wrap;html=1;fillColor=#e1d5e7;strokeColor=#9673a6;" vertex="1" parent="WIyWlLk6GJQsqaUBKTNV-1">
          <mxGeometry x="158.5" y="677" width="120" height="30" as="geometry" />
        </mxCell>
        <mxCell id="ZAsc5fxTnf5-SnVRRF1R-39" value="" style="edgeStyle=orthogonalEdgeStyle;rounded=0;orthogonalLoop=1;jettySize=auto;html=1;" edge="1" parent="WIyWlLk6GJQsqaUBKTNV-1" source="ZAsc5fxTnf5-SnVRRF1R-24" target="ZAsc5fxTnf5-SnVRRF1R-38">
          <mxGeometry relative="1" as="geometry" />
        </mxCell>
        <mxCell id="ZAsc5fxTnf5-SnVRRF1R-24" value="false" style="text;html=1;align=center;verticalAlign=middle;resizable=0;points=[];autosize=1;strokeColor=none;fillColor=none;" vertex="1" parent="WIyWlLk6GJQsqaUBKTNV-1">
          <mxGeometry x="335" y="435" width="50" height="30" as="geometry" />
        </mxCell>
        <mxCell id="ZAsc5fxTnf5-SnVRRF1R-25" value="true" style="text;html=1;align=center;verticalAlign=middle;resizable=0;points=[];autosize=1;strokeColor=none;fillColor=none;" vertex="1" parent="WIyWlLk6GJQsqaUBKTNV-1">
          <mxGeometry x="200" y="540" width="40" height="30" as="geometry" />
        </mxCell>
        <mxCell id="ZAsc5fxTnf5-SnVRRF1R-36" style="edgeStyle=orthogonalEdgeStyle;rounded=0;orthogonalLoop=1;jettySize=auto;html=1;" edge="1" parent="WIyWlLk6GJQsqaUBKTNV-1">
          <mxGeometry relative="1" as="geometry">
            <mxPoint x="219.07" y="599" as="targetPoint" />
            <mxPoint x="219.07" y="569" as="sourcePoint" />
          </mxGeometry>
        </mxCell>
        <mxCell id="ZAsc5fxTnf5-SnVRRF1R-41" value="" style="edgeStyle=orthogonalEdgeStyle;rounded=0;orthogonalLoop=1;jettySize=auto;html=1;" edge="1" parent="WIyWlLk6GJQsqaUBKTNV-1" source="ZAsc5fxTnf5-SnVRRF1R-38" target="ZAsc5fxTnf5-SnVRRF1R-40">
          <mxGeometry relative="1" as="geometry" />
        </mxCell>
        <mxCell id="ZAsc5fxTnf5-SnVRRF1R-38" value="print sum&amp;nbsp;" style="shape=parallelogram;perimeter=parallelogramPerimeter;whiteSpace=wrap;html=1;fixedSize=1;rounded=1;fillColor=#dae8fc;strokeColor=#6c8ebf;" vertex="1" parent="WIyWlLk6GJQsqaUBKTNV-1">
          <mxGeometry x="430" y="432.5" width="120" height="35" as="geometry" />
        </mxCell>
        <mxCell id="ZAsc5fxTnf5-SnVRRF1R-40" value="End" style="ellipse;whiteSpace=wrap;html=1;fillColor=#f8cecc;strokeColor=#b85450;" vertex="1" parent="WIyWlLk6GJQsqaUBKTNV-1">
          <mxGeometry x="590" y="430" width="100" height="40" as="geometry" />
        </mxCell>
      </root>
    </mxGraphModel>
  </diagram>
</mxfile>
